<svg width="172" height="35" viewBox="0 0 172 35" fill="none" xmlns="http://www.w3.org/2000/svg">
<path d="M37.9304 0.664613C37.5414 -0.189764 36.4302 -0.223939 35.9649 0.582593C33.8119 4.26667 29.9574 6.56324 25.5542 6.56324H19.9981C12.6363 6.56324 6.6635 12.4414 6.6635 19.6865C6.6635 20.1649 6.71906 20.6229 6.76768 21.0877C11.1987 17.9641 17.5951 15.3121 26.6654 15.3121C27.2766 15.3121 27.7766 15.8042 27.7766 16.4057C27.7766 17.0071 27.2766 17.4993 26.6654 17.4993C9.20541 17.4993 1.80193 28.032 0.162883 31.9895C-0.295494 33.1036 0.246224 34.3749 1.37828 34.8329C2.51727 35.2977 3.80906 34.7577 4.28133 33.6504C4.38551 33.4044 5.73286 30.3765 9.27486 27.4579C11.5251 30.4585 15.8033 33.3223 21.4218 32.7345C32.3257 31.9553 40 22.3316 40 10.5481C40 7.11687 39.2499 3.56266 37.9304 0.664613V0.664613Z" fill="#F28123"/>
<path d="M48.6953 7.58398H55.3604C58.3975 7.58398 60.5996 8.01855 61.9668 8.8877C63.3438 9.74707 64.0322 11.1191 64.0322 13.0039C64.0322 14.2832 63.7295 15.333 63.124 16.1533C62.5283 16.9736 61.7324 17.4668 60.7363 17.6328V17.7793C62.0938 18.082 63.0703 18.6484 63.666 19.4785C64.2715 20.3086 64.5742 21.4121 64.5742 22.7891C64.5742 24.7422 63.8662 26.2656 62.4502 27.3594C61.0439 28.4531 59.1299 29 56.708 29H48.6953V7.58398ZM53.2363 16.0654H55.873C57.1035 16.0654 57.9922 15.875 58.5391 15.4941C59.0957 15.1133 59.374 14.4834 59.374 13.6045C59.374 12.7842 59.0713 12.1982 58.4658 11.8467C57.8701 11.4854 56.9229 11.3047 55.624 11.3047H53.2363V16.0654ZM53.2363 19.6689V25.25H56.1953C57.4453 25.25 58.3682 25.0107 58.9639 24.5322C59.5596 24.0537 59.8574 23.3213 59.8574 22.335C59.8574 20.5576 58.5879 19.6689 56.0488 19.6689H53.2363ZM68.3096 8.38965C68.3096 6.93457 69.1201 6.20703 70.7412 6.20703C72.3623 6.20703 73.1729 6.93457 73.1729 8.38965C73.1729 9.08301 72.9678 9.625 72.5576 10.0156C72.1572 10.3965 71.5518 10.5869 70.7412 10.5869C69.1201 10.5869 68.3096 9.85449 68.3096 8.38965ZM72.9678 29H68.5V12.623H72.9678V29ZM81.2295 20.7822C81.2295 22.4033 81.4932 23.6289 82.0205 24.459C82.5576 25.2891 83.4268 25.7041 84.6279 25.7041C85.8193 25.7041 86.6738 25.2939 87.1914 24.4736C87.7188 23.6436 87.9824 22.4131 87.9824 20.7822C87.9824 19.1611 87.7188 17.9453 87.1914 17.1348C86.6641 16.3242 85.7998 15.9189 84.5986 15.9189C83.4072 15.9189 82.5479 16.3242 82.0205 17.1348C81.4932 17.9355 81.2295 19.1514 81.2295 20.7822ZM92.5527 20.7822C92.5527 23.4482 91.8496 25.5332 90.4434 27.0371C89.0371 28.541 87.0791 29.293 84.5693 29.293C82.9971 29.293 81.6104 28.9512 80.4092 28.2676C79.208 27.5742 78.2852 26.583 77.6406 25.2939C76.9961 24.0049 76.6738 22.501 76.6738 20.7822C76.6738 18.1064 77.3721 16.0264 78.7686 14.542C80.165 13.0576 82.1279 12.3154 84.6572 12.3154C86.2295 12.3154 87.6162 12.6572 88.8174 13.3408C90.0186 14.0244 90.9414 15.0059 91.5859 16.2852C92.2305 17.5645 92.5527 19.0635 92.5527 20.7822ZM101.063 29H96.5957V7.58398H108.871V11.3047H101.063V16.8271H108.329V20.5332H101.063V29ZM123.109 29L122.245 26.7734H122.128C121.376 27.7207 120.6 28.3799 119.799 28.751C119.008 29.1123 117.973 29.293 116.693 29.293C115.121 29.293 113.881 28.8438 112.973 27.9453C112.074 27.0469 111.625 25.7676 111.625 24.1074C111.625 22.3691 112.23 21.0898 113.441 20.2695C114.662 19.4395 116.498 18.9805 118.949 18.8926L121.791 18.8047V18.0869C121.791 16.4268 120.941 15.5967 119.242 15.5967C117.934 15.5967 116.396 15.9922 114.628 16.7832L113.148 13.7656C115.033 12.7793 117.123 12.2861 119.418 12.2861C121.615 12.2861 123.3 12.7646 124.472 13.7217C125.644 14.6787 126.229 16.1338 126.229 18.0869V29H123.109ZM121.791 21.4121L120.062 21.4707C118.764 21.5098 117.797 21.7441 117.162 22.1738C116.527 22.6035 116.21 23.2578 116.21 24.1367C116.21 25.3965 116.933 26.0264 118.378 26.0264C119.413 26.0264 120.238 25.7285 120.854 25.1328C121.479 24.5371 121.791 23.7461 121.791 22.7598V21.4121ZM139.984 12.3154C140.59 12.3154 141.093 12.3594 141.493 12.4473L141.156 16.6367C140.795 16.5391 140.355 16.4902 139.838 16.4902C138.412 16.4902 137.299 16.8564 136.498 17.5889C135.707 18.3213 135.312 19.3467 135.312 20.665V29H130.844V12.623H134.228L134.887 15.377H135.106C135.614 14.459 136.298 13.7217 137.157 13.165C138.026 12.5986 138.969 12.3154 139.984 12.3154ZM159.13 29H154.662V19.4346C154.662 18.2529 154.462 17.3691 154.062 16.7832C153.671 16.1875 153.051 15.8896 152.201 15.8896C151.059 15.8896 150.229 16.3096 149.711 17.1494C149.193 17.9893 148.935 19.3711 148.935 21.2949V29H144.467V12.623H147.88L148.48 14.7178H148.729C149.169 13.9658 149.804 13.3799 150.634 12.96C151.464 12.5303 152.416 12.3154 153.49 12.3154C155.941 12.3154 157.602 13.1162 158.471 14.7178H158.866C159.306 13.9561 159.95 13.3652 160.8 12.9453C161.659 12.5254 162.626 12.3154 163.7 12.3154C165.556 12.3154 166.957 12.7939 167.904 13.751C168.861 14.6982 169.34 16.2217 169.34 18.3213V29H164.857V19.4346C164.857 18.2529 164.657 17.3691 164.257 16.7832C163.866 16.1875 163.246 15.8896 162.396 15.8896C161.303 15.8896 160.482 16.2803 159.936 17.0615C159.398 17.8428 159.13 19.083 159.13 20.7822V29Z" fill="#F28123"/>
</svg>
